<svg xmlns="http://www.w3.org/2000/svg" viewBox="0 0 840 620" role="img" aria-labelledby="title desc">
  <title id="title">Blue sky and modern white building</title>
  <desc id="desc">A calm lifestyle banner with blue sky and a white angular building.</desc>
  <defs>
    <linearGradient id="sky" x1="0" x2="0" y1="0" y2="1">
      <stop offset="0" stop-color="#43a7de"/>
      <stop offset="0.58" stop-color="#77c2ea"/>
      <stop offset="1" stop-color="#e9f7ff"/>
    </linearGradient>
    <linearGradient id="glass" x1="0" x2="1" y1="0" y2="1">
      <stop offset="0" stop-color="#d8ecf7"/>
      <stop offset="1" stop-color="#8fb7cd"/>
    </linearGradient>
    <filter id="softShadow" x="-20%" y="-20%" width="140%" height="140%">
      <feDropShadow dx="0" dy="18" stdDeviation="18" flood-color="#000000" flood-opacity="0.2"/>
    </filter>
  </defs>
  <rect width="840" height="620" fill="url(#sky)"/>
  <circle cx="675" cy="118" r="80" fill="#ffffff" opacity="0.18"/>
  <path d="M-40 372 L366 242 L910 390 L910 662 L-40 662 Z" fill="#f7fbfd" filter="url(#softShadow)"/>
  <path d="M130 348 L360 278 L360 632 L130 686 Z" fill="#e6eef3"/>
  <path d="M398 284 L734 376 L734 678 L398 626 Z" fill="#ffffff"/>
  <path d="M176 366 L315 326 L315 441 L176 475 Z" fill="url(#glass)"/>
  <path d="M438 342 L668 404 L668 508 L438 468 Z" fill="url(#glass)"/>
  <path d="M148 496 L352 448 L352 520 L148 566 Z" fill="#ffffff"/>
  <path d="M424 488 L720 530 L720 588 L424 552 Z" fill="#e9f0f4"/>
  <path d="M360 278 L398 284 L398 626 L360 632 Z" fill="#cfdce4"/>
  <path d="M0 566 C160 520 330 530 488 572 C622 606 734 598 840 558 L840 620 L0 620 Z" fill="#f2f2f2" opacity="0.42"/>
</svg>
